<?xml version="1.0" encoding="utf-8"?>
<!-- Generator: Adobe Illustrator 26.3.0, SVG Export Plug-In . SVG Version: 6.00 Build 0)  -->
<svg version="1.1" id="Layer_1" xmlns="http://www.w3.org/2000/svg" xmlns:xlink="http://www.w3.org/1999/xlink" x="0px" y="0px"
	 viewBox="0 0 1200.24 1200.24" style="enable-background:new 0 0 1200.24 1200.24;" xml:space="preserve">
<style type="text/css">
	.st0{fill:#FF58AA;}
	.st1{fill:#84F23B;}
	.st2{fill:#B84DB7;}
	.st3{fill:#12F5E2;}
	.st4{fill:#13C08A;}
	.st5{fill:#00112D;}
	.st6{fill:#FFFFFF;}
	.st7{fill:none;}
	.st8{font-family:'PoorRichard-Regular';}
	.st9{font-size:72px;}
</style>
<g>
	<path class="st0" d="M545.19,603.62l-68.87,4.73c-31.64,0-56.97-25.7-56.97-57.34l-5.14-87.07c0-31.64,25.74-57.34,57.38-57.34
		l31.81,3.19c-1.01,3.98-1.49,8.18-1.49,12.42l11.47,130.93C513.38,574.84,526.18,593.74,545.19,603.62z"/>
	<path class="st1" d="M799.14,551c0,31.65-25.7,57.34-57.34,57.34l-67-6.64c17.15-10.25,28.46-28.14,28.46-48.58l17.25-136.24
		c0-3.08-0.26-6.16-0.75-9.13l16.78-1.17c31.64,0,57.28,25.7,57.28,57.34L799.14,551z"/>
	<path class="st2" d="M633.9,597.67c-0.69,0.05-1.43,0.05-2.12,0.05l-86.59,5.89c-19.01-9.87-31.81-28.77-31.81-50.49L501.91,422.2
		c0-4.25,0.48-8.44,1.49-12.42l76.81,7.48c-30.85,0.9-53.96,26.23-53.96,57.29v60.53c0,31.64,24.06,57.34,55.76,57.34L633.9,597.67z
		"/>
	<path class="st3" d="M684.26,479.86v60.53c0,30.95-21.49,56.17-52.12,57.29l-51-5.26c-31.7,0-54.88-25.7-54.88-57.34v-60.53
		c0-31.06,23.11-56.39,53.96-57.29l50.51,5.26C662.42,422.52,684.26,448.22,684.26,479.86z"/>
	<path class="st4" d="M720.5,416.89l-17.25,136.24c0,20.44-11.31,38.33-28.46,48.58l-42.65-4.03c30.64-1.12,52.12-26.34,52.12-57.29
		v-60.53c0-31.64-22.6-57.34-54.3-57.34l-52.15-5.26c0.58-0.05,1.61-0.05,2.19-0.05l139.53-9.45
		C720.01,410.73,720.5,413.81,720.5,416.89z"/>
	<path class="st3" d="M674.79,602.77c-9.72,5.88-21.24,10.35-33.66,10.35H575.5c-11.04,0-21.34-3.72-30.31-8.45l86.59-6.42
		c0.7,0,1.44,0.27,2.12,0.22L674.79,602.77z"/>
	<path class="st3" d="M578.69,417.26l-75.29-7.48c6.06-26.07,30.85-45.56,60.63-45.56l94.34-5.36c31.01,0,56.71,21.24,61.38,48.9
		l-139.31,9.45C579.86,417.21,579.27,417.21,578.69,417.26z"/>
	<path class="st5" d="M708.7,501.38c0,55.25-50.1,105.36-105.36,105.36c-55.26,0-94.75-44.79-94.75-100.05
		c0-55.26,39.49-100.05,94.75-100.05C658.6,406.63,708.7,446.12,708.7,501.38z"/>
	<path class="st6" d="M681.97,506.26c0,42.51-38.54,81.06-81.06,81.06c-42.51,0-72.88-34.47-72.88-76.98
		c0-42.51,30.37-76.98,72.88-76.98C643.43,433.37,681.97,463.75,681.97,506.26z"/>
	<path class="st5" d="M691.71,498.94c0,43.92-39.83,83.75-83.75,83.75c-43.92,0-75.31-35.61-75.31-79.53s31.39-79.53,75.31-79.53
		C651.88,423.63,691.71,455.02,691.71,498.94z"/>
	<path class="st6" d="M660.73,453.62c0,5.62-5.09,10.71-10.71,10.71c-5.62,0-9.63-4.55-9.63-10.17c0-5.62,4.01-10.17,9.63-10.17
		C655.64,443.99,660.73,448,660.73,453.62z"/>
	<path class="st6" d="M676.83,475.76c0,3.14-2.85,6-6,6c-3.15,0-5.39-2.55-5.39-5.69c0-3.15,2.24-5.7,5.39-5.7
		C673.98,470.36,676.83,472.61,676.83,475.76z"/>
</g>
<g>
	<path d="M432.33,720.68c-1.34,1.09-2.81,1.73-4.42,1.91c-0.13,0-0.27,0-0.41,0.01c-0.14,0.02-0.28,0.02-0.41,0.02
		c-0.57,0-1.15-0.06-1.72-0.18c-0.58-0.12-1.12-0.31-1.65-0.54v6.34c0,0.13,0.02,0.26,0.05,0.41c0.03,0.14,0.07,0.28,0.11,0.41
		c0.16,0.42,0.39,0.81,0.71,1.16c0.32,0.35,0.69,0.53,1.1,0.53h1.62v0.69h-9.21v-0.69h0.93c0.39,0,0.76-0.18,1.09-0.53
		c0.33-0.35,0.58-0.74,0.73-1.16c0.04-0.13,0.09-0.27,0.12-0.41c0.03-0.15,0.05-0.28,0.05-0.41V712.8c0-0.5-0.19-0.94-0.57-1.31
		c-0.37-0.37-0.81-0.57-1.32-0.57h-1.16v-0.72h9.12c1.82,0,3.5,0.53,5,1.58c1.51,1.06,2.26,2.6,2.26,4.62
		C434.35,718.17,433.68,719.59,432.33,720.68z M431.28,716.28c0-0.09-0.01-0.17-0.03-0.26c-0.09-1.12-0.49-2.15-1.19-3.08
		c-0.71-0.94-1.67-1.41-2.91-1.41h-3.43v9.09c0.31,0.31,0.67,0.53,1.07,0.68c0.41,0.15,0.83,0.24,1.27,0.28
		c0.17,0.03,0.35,0.04,0.53,0.05c0.17,0.02,0.34,0.02,0.49,0.02c1.21,0,2.17-0.46,2.89-1.38c0.72-0.93,1.13-1.94,1.27-3.04
		c0-0.11,0-0.22,0.01-0.33c0.02-0.11,0.02-0.22,0.02-0.33C431.28,716.46,431.28,716.37,431.28,716.28z"/>
	<path d="M470.62,731.43c-0.64,0-1.28,0-1.92,0c-0.64,0-1.27,0-1.91,0c-0.64,0-1.28,0-1.92,0v-0.69h0.5c0.4,0,0.75-0.18,1.09-0.53
		c0.33-0.35,0.57-0.74,0.73-1.16c0.04-0.13,0.08-0.27,0.11-0.41c0.03-0.15,0.05-0.28,0.05-0.41v-6.57h-13.01v6.57
		c0,0.13,0.02,0.26,0.05,0.41c0.03,0.14,0.07,0.28,0.11,0.41c0.15,0.42,0.4,0.81,0.73,1.16c0.33,0.35,0.7,0.53,1.09,0.53h0.49v0.69
		c-1.27,0-2.55,0-3.81,0c-1.26,0-2.55,0-3.84,0v-0.69h0.49c0.4,0,0.76-0.18,1.09-0.53c0.33-0.35,0.57-0.74,0.73-1.16
		c0.04-0.13,0.08-0.27,0.11-0.41c0.04-0.15,0.05-0.28,0.05-0.41V712.8c0-0.5-0.18-0.94-0.54-1.31c-0.36-0.37-0.8-0.57-1.3-0.57
		c-0.09,0-0.17,0-0.25,0c-0.07,0-0.17,0-0.28,0v-0.72c1.26,0,2.51,0,3.75,0c1.25,0,2.48,0,3.72,0v0.72c-0.09,0-0.17,0-0.25,0
		c-0.08,0-0.16,0-0.25,0c-0.53,0-0.97,0.19-1.34,0.57c-0.36,0.37-0.54,0.81-0.54,1.31v7.3h13.01v-7.3c0-0.5-0.18-0.94-0.55-1.31
		c-0.36-0.37-0.8-0.57-1.3-0.57c-0.04,0-0.09,0-0.13,0c-0.04,0-0.09,0-0.13,0c-0.05,0-0.09,0-0.13,0c-0.04,0-0.09,0-0.13,0v-0.72
		c0.61,0,1.24,0,1.87,0c0.63,0,1.25,0,1.86,0c0.62,0,1.24,0,1.87,0c0.62,0,1.24,0,1.86,0v0.72c-0.09,0-0.17,0-0.25,0
		c-0.07,0-0.17,0-0.28,0c-0.51,0-0.94,0.19-1.3,0.57c-0.36,0.37-0.55,0.81-0.55,1.31v15.42c0,0.13,0.02,0.26,0.05,0.41
		c0.03,0.14,0.07,0.28,0.12,0.41c0.15,0.42,0.4,0.81,0.73,1.16c0.33,0.35,0.69,0.53,1.08,0.53h0.5v0.69
		C471.89,731.43,471.25,731.43,470.62,731.43z"/>
	<path d="M505.77,728.63c-2.17,2.18-4.77,3.27-7.81,3.27c-3.01,0-5.62-1.09-7.8-3.27c-2.18-2.18-3.26-4.78-3.26-7.8
		c0-3.04,1.08-5.65,3.26-7.84c2.18-2.19,4.78-3.29,7.8-3.29c3.04,0,5.64,1.1,7.81,3.29c2.17,2.19,3.25,4.81,3.25,7.84
		C509.02,723.85,507.94,726.45,505.77,728.63z M502.23,713.2c-1.5-1.41-3.2-2.12-5.1-2.12c-0.24,0-0.5,0.02-0.78,0.05
		c-0.27,0.04-0.54,0.09-0.81,0.15c-0.13,0.04-0.26,0.09-0.39,0.13c-0.13,0.04-0.26,0.09-0.39,0.13c-1.68,0.64-2.9,1.71-3.67,3.22
		c-0.77,1.51-1.17,3.11-1.22,4.81c0,0.04,0,0.09,0,0.15c0,0.06,0,0.11,0,0.16c0,0.66,0.06,1.31,0.16,1.96
		c0.11,0.65,0.26,1.27,0.46,1.86c0.61,1.74,1.69,3.32,3.2,4.74c1.52,1.42,3.22,2.13,5.09,2.13c0.39,0,0.79-0.04,1.19-0.11
		c0.4-0.07,0.8-0.19,1.19-0.35c1.67-0.64,2.9-1.71,3.67-3.22c0.77-1.51,1.17-3.11,1.22-4.8c0-0.04,0-0.09,0-0.15
		c0-0.05,0-0.11,0-0.15c0-0.66-0.06-1.32-0.17-1.97c-0.11-0.65-0.26-1.27-0.46-1.86C504.81,716.2,503.74,714.61,502.23,713.2z"/>
	<path d="M543.5,714.56v0.03l-0.69-0.1c0-0.02,0-0.04,0-0.05c0-0.01,0.01-0.03,0.03-0.05c0-0.02,0-0.04,0-0.07c0-0.02,0-0.04,0-0.07
		c0-0.08-0.01-0.17-0.02-0.26c-0.01-0.08-0.02-0.17-0.05-0.26c-0.13-0.44-0.38-0.85-0.76-1.22c-0.38-0.38-0.79-0.56-1.25-0.56h-5.58
		v16.28c0,0.13,0.01,0.26,0.05,0.41c0.03,0.14,0.07,0.28,0.12,0.41c0.15,0.42,0.39,0.81,0.71,1.16c0.32,0.35,0.69,0.53,1.11,0.53
		h0.5v0.69h-7.66v-0.69h0.5c0.39,0,0.75-0.18,1.08-0.53c0.33-0.35,0.58-0.74,0.73-1.16c0.04-0.13,0.08-0.27,0.12-0.41
		c0.03-0.15,0.05-0.28,0.05-0.41v-16.28h-5.15c-0.02,0-0.05,0-0.08,0c-0.03,0-0.06,0-0.09,0c-0.46,0.07-0.9,0.29-1.31,0.68
		c-0.4,0.39-0.69,0.8-0.83,1.24c-0.05,0.11-0.08,0.22-0.1,0.33c-0.03,0.11-0.04,0.21-0.04,0.33h-0.72v-5.38l0.66-0.17
		c0.31,0.51,0.67,0.84,1.08,0.99c0.42,0.16,0.91,0.24,1.45,0.24h13.54c0.6,0,1.12-0.09,1.57-0.26c0.45-0.18,0.85-0.51,1.21-0.99
		l0.63,0.26L543.5,714.56z"/>
	<path d="M578.19,728.63c-2.17,2.18-4.78,3.27-7.81,3.27c-3.02,0-5.62-1.09-7.8-3.27c-2.18-2.18-3.27-4.78-3.27-7.8
		c0-3.04,1.09-5.65,3.27-7.84c2.18-2.19,4.78-3.29,7.8-3.29c3.04,0,5.64,1.1,7.81,3.29c2.17,2.19,3.25,4.81,3.25,7.84
		C581.45,723.85,580.36,726.45,578.19,728.63z M574.66,713.2c-1.51-1.41-3.21-2.12-5.1-2.12c-0.24,0-0.5,0.02-0.78,0.05
		c-0.28,0.04-0.55,0.09-0.81,0.15c-0.13,0.04-0.26,0.09-0.39,0.13c-0.13,0.04-0.27,0.09-0.4,0.13c-1.67,0.64-2.9,1.71-3.67,3.22
		c-0.77,1.51-1.18,3.11-1.22,4.81c0,0.04,0,0.09,0,0.15c0,0.06,0,0.11,0,0.16c0,0.66,0.05,1.31,0.16,1.96
		c0.11,0.65,0.27,1.27,0.47,1.86c0.62,1.74,1.68,3.32,3.2,4.74c1.51,1.42,3.22,2.13,5.09,2.13c0.39,0,0.79-0.04,1.18-0.11
		c0.4-0.07,0.8-0.19,1.19-0.35c1.67-0.64,2.9-1.71,3.66-3.22c0.77-1.51,1.18-3.11,1.23-4.8c0-0.04,0-0.09,0-0.15
		c0-0.05,0-0.11,0-0.15c0-0.66-0.06-1.32-0.17-1.97c-0.11-0.65-0.26-1.27-0.46-1.86C577.23,716.2,576.16,714.61,574.66,713.2z"/>
	<path d="M617.7,721.66c-0.55,0-1.02,0.18-1.42,0.52c-0.4,0.35-0.59,0.79-0.59,1.29v8.36h-0.59c-0.24-0.18-0.5-0.31-0.79-0.4
		c-0.29-0.09-0.59-0.13-0.9-0.13c-0.15,0-0.29,0.02-0.43,0.04c-0.13,0.02-0.26,0.05-0.39,0.1c-0.29,0.07-0.61,0.13-0.98,0.2
		c-0.37,0.07-0.75,0.11-1.14,0.13c-0.35,0.04-0.71,0.08-1.06,0.1c-0.35,0.02-0.67,0.04-0.95,0.04c-3.08,0-5.81-1.05-8.19-3.15
		c-2.38-2.1-3.57-4.74-3.57-7.91c0-3.19,1.19-5.84,3.57-7.96c2.38-2.11,5.11-3.17,8.19-3.17c0.15,0,0.31,0.01,0.46,0.02
		c0.16,0.01,0.31,0.02,0.46,0.02c0.64,0.04,1.26,0.14,1.88,0.28c0.62,0.14,1.21,0.34,1.79,0.58c0.07,0.02,0.13,0.04,0.19,0.05
		c0.07,0.01,0.15,0.02,0.24,0.02c0.05,0,0.08,0,0.12,0c0.03,0,0.06-0.01,0.11-0.04c0.09,0,0.18-0.02,0.25-0.05
		c0.08-0.03,0.15-0.07,0.21-0.12c0.11-0.06,0.2-0.15,0.27-0.24c0.07-0.1,0.11-0.19,0.13-0.28l0.69,0.1v5.35h-0.76
		c-0.22-0.59-0.51-1.13-0.9-1.59c-0.37-0.46-0.8-0.85-1.28-1.15c-0.54-0.38-1.12-0.65-1.75-0.83c-0.64-0.18-1.31-0.26-2.02-0.26
		c-2.6,0-4.71,0.91-6.36,2.74c-1.64,1.82-2.46,4-2.46,6.54c0,2.47,0.81,4.67,2.44,6.6c1.63,1.94,3.75,2.91,6.37,2.91
		c0.28,0,0.61-0.01,0.96-0.04c0.35-0.04,0.71-0.09,1.06-0.15c0.46-0.06,0.9-0.16,1.31-0.29c0.42-0.13,0.8-0.29,1.13-0.46v-5.91
		c0-0.5-0.2-0.94-0.59-1.29c-0.38-0.35-0.86-0.52-1.43-0.52h-0.46v-0.73c1.28,0,2.55,0,3.82,0c1.26,0,2.54,0,3.81,0v0.73H617.7z"/>
	<path d="M647.89,731.43c-0.44-0.44-0.86-0.99-1.27-1.64c-0.4-0.65-0.8-1.31-1.17-1.99c-0.04-0.09-0.09-0.17-0.13-0.25
		c-0.05-0.07-0.08-0.15-0.13-0.22c-0.02-0.04-0.05-0.09-0.09-0.15c-0.02-0.05-0.06-0.1-0.07-0.15c-0.67-1.21-1.38-2.32-2.13-3.34
		c-0.76-1.01-1.69-1.55-2.79-1.62c-0.16-0.02-0.33-0.03-0.5-0.03s-0.34,0-0.5,0c-0.07,0-0.12,0-0.18,0c-0.06,0-0.11,0.01-0.19,0.03
		c-0.11,0-0.21,0-0.33,0c-0.11,0-0.22,0-0.33,0c0,1.01,0,2.03,0,3.06c0,1.02,0,2.05,0,3.09c0,0.13,0.01,0.26,0.05,0.41
		c0.03,0.14,0.06,0.28,0.11,0.41c0.16,0.42,0.39,0.81,0.72,1.16c0.33,0.35,0.69,0.53,1.09,0.53c0.09,0,0.17,0,0.24,0
		c0.08,0,0.16,0,0.24,0v0.69h-7.62v-0.69c0.06,0,0.13,0,0.2,0c0.08,0,0.16,0,0.25,0c0.42,0,0.8-0.18,1.12-0.53
		c0.33-0.35,0.58-0.74,0.73-1.16c0.04-0.13,0.07-0.27,0.11-0.41c0.03-0.15,0.05-0.28,0.05-0.41c0-2.55,0-5.12,0-7.69
		c0-2.58,0-5.15,0-7.73c0-0.48-0.17-0.91-0.51-1.29c-0.34-0.37-0.76-0.57-1.24-0.59c-0.09-0.02-0.18-0.03-0.28-0.02
		c-0.11,0.01-0.21,0.02-0.32,0.02c-0.04,0-0.1,0-0.15,0c-0.06,0-0.11,0-0.15,0v-0.72h8.92c1.65,0,3.15,0.55,4.5,1.65
		c1.36,1.09,2.04,2.53,2.04,4.29c0,1.25-0.38,2.36-1.14,3.33c-0.76,0.97-1.72,1.68-2.86,2.12c0.46,0.33,0.86,0.72,1.17,1.16
		c0.32,0.44,0.63,0.92,0.94,1.42c0.13,0.22,0.27,0.44,0.42,0.66c0.14,0.22,0.29,0.44,0.45,0.66c0.03,0.09,0.09,0.17,0.15,0.24
		c0.06,0.08,0.11,0.16,0.18,0.25c0.04,0.05,0.08,0.1,0.11,0.15c0.03,0.05,0.07,0.11,0.12,0.18c0.79,1.14,1.6,2.17,2.44,3.07
		c0.83,0.9,1.8,1.36,2.9,1.36v0.69H647.89z M644.9,717.92c0.21-0.53,0.32-1.07,0.32-1.62c0-1.14-0.43-2.18-1.27-3.11
		c-0.85-0.92-1.95-1.39-3.29-1.39h-2.57v8.85c0.06,0,0.12,0,0.19,0c0.07,0,0.14,0,0.2,0c0.07,0,0.14,0,0.21,0c0.08,0,0.16,0,0.25,0
		c0.9,0.02,1.77-0.02,2.62-0.12c0.85-0.1,1.63-0.49,2.33-1.17C644.35,718.94,644.7,718.45,644.9,717.92z"/>
	<path d="M682.03,731.43v-0.69h0.5c0.22,0,0.42-0.05,0.63-0.16c0.2-0.1,0.35-0.22,0.46-0.38c0.06-0.07,0.12-0.14,0.15-0.22
		c0.03-0.07,0.05-0.16,0.05-0.25c0.02-0.04,0.03-0.08,0.03-0.11c0-0.03,0-0.07,0-0.12c0-0.06-0.01-0.13-0.02-0.2
		c-0.01-0.06-0.02-0.13-0.05-0.2l-2.18-5.61h-7.46l-1.55,4.59c-0.02,0.06-0.04,0.12-0.05,0.18c-0.01,0.05-0.02,0.12-0.02,0.19
		c-0.02,0.06-0.03,0.12-0.03,0.18c0,0.05,0,0.11,0,0.18c0,0.37,0.11,0.72,0.32,1.05c0.2,0.33,0.52,0.57,0.94,0.72
		c0.14,0.03,0.29,0.05,0.45,0.08c0.16,0.03,0.33,0.05,0.51,0.05v0.69h-6.93v-0.69h0.5c0.11,0,0.23-0.02,0.37-0.05
		c0.12-0.03,0.26-0.08,0.39-0.15c0.31-0.15,0.62-0.37,0.93-0.65c0.31-0.27,0.57-0.57,0.79-0.87c0.11-0.15,0.2-0.31,0.29-0.46
		c0.07-0.16,0.13-0.3,0.18-0.43l6.01-17.93h2.12l6.94,17.93c0.06,0.13,0.15,0.28,0.24,0.45c0.08,0.16,0.2,0.32,0.33,0.48
		c0.22,0.26,0.46,0.53,0.74,0.78c0.28,0.25,0.57,0.47,0.88,0.65c0.16,0.06,0.31,0.12,0.46,0.18c0.16,0.05,0.31,0.09,0.46,0.09h0.5
		v0.69H682.03z M677.61,713.27l-2.94,8.72h6.34L677.61,713.27z"/>
	<path d="M718.13,720.68c-1.34,1.09-2.82,1.73-4.42,1.91c-0.14,0-0.27,0-0.42,0.01c-0.15,0.02-0.28,0.02-0.42,0.02
		c-0.57,0-1.14-0.06-1.72-0.18c-0.57-0.12-1.12-0.31-1.64-0.54v6.34c0,0.13,0.01,0.26,0.04,0.41c0.03,0.14,0.07,0.28,0.12,0.41
		c0.15,0.42,0.39,0.81,0.71,1.16c0.32,0.35,0.68,0.53,1.11,0.53h1.61v0.69h-9.21v-0.69h0.93c0.4,0,0.76-0.18,1.09-0.53
		c0.33-0.35,0.57-0.74,0.72-1.16c0.05-0.13,0.08-0.27,0.12-0.41c0.03-0.15,0.05-0.28,0.05-0.41V712.8c0-0.5-0.19-0.94-0.56-1.31
		c-0.38-0.37-0.81-0.57-1.33-0.57h-1.16v-0.72h9.12c1.82,0,3.49,0.53,5.01,1.58c1.51,1.06,2.26,2.6,2.26,4.62
		C720.15,718.17,719.48,719.59,718.13,720.68z M717.07,716.28c0-0.09-0.01-0.17-0.03-0.26c-0.08-1.12-0.48-2.15-1.19-3.08
		c-0.7-0.94-1.67-1.41-2.91-1.41h-3.43v9.09c0.3,0.31,0.66,0.53,1.07,0.68c0.4,0.15,0.82,0.24,1.26,0.28
		c0.18,0.03,0.36,0.04,0.53,0.05c0.18,0.02,0.34,0.02,0.5,0.02c1.21,0,2.17-0.46,2.89-1.38c0.71-0.93,1.14-1.94,1.27-3.04
		c0-0.11,0.01-0.22,0.02-0.33c0.01-0.11,0.01-0.22,0.01-0.33C717.07,716.46,717.07,716.37,717.07,716.28z"/>
	<path d="M756.4,731.43c-0.63,0-1.28,0-1.91,0c-0.64,0-1.28,0-1.91,0c-0.64,0-1.29,0-1.92,0v-0.69h0.5c0.4,0,0.77-0.18,1.09-0.53
		c0.33-0.35,0.57-0.74,0.72-1.16c0.04-0.13,0.08-0.27,0.12-0.41c0.02-0.15,0.05-0.28,0.05-0.41v-6.57h-13.02v6.57
		c0,0.13,0.02,0.26,0.05,0.41c0.03,0.14,0.07,0.28,0.11,0.41c0.15,0.42,0.4,0.81,0.73,1.16c0.33,0.35,0.69,0.53,1.09,0.53h0.49v0.69
		c-1.27,0-2.55,0-3.81,0c-1.27,0-2.56,0-3.85,0v-0.69h0.5c0.39,0,0.76-0.18,1.09-0.53c0.33-0.35,0.57-0.74,0.72-1.16
		c0.04-0.13,0.09-0.27,0.11-0.41c0.03-0.15,0.05-0.28,0.05-0.41V712.8c0-0.5-0.18-0.94-0.54-1.31c-0.37-0.37-0.81-0.57-1.31-0.57
		c-0.09,0-0.17,0-0.24,0c-0.08,0-0.17,0-0.29,0v-0.72c1.25,0,2.51,0,3.75,0c1.25,0,2.47,0,3.71,0v0.72c-0.08,0-0.17,0-0.24,0
		c-0.08,0-0.16,0-0.25,0c-0.52,0-0.97,0.19-1.34,0.57c-0.37,0.37-0.55,0.81-0.55,1.31v7.3h13.02v-7.3c0-0.5-0.19-0.94-0.54-1.31
		c-0.37-0.37-0.8-0.57-1.3-0.57c-0.05,0-0.09,0-0.14,0c-0.04,0-0.08,0-0.13,0c-0.04,0-0.09,0-0.13,0c-0.05,0-0.09,0-0.14,0v-0.72
		c0.63,0,1.25,0,1.87,0s1.25,0,1.86,0c0.62,0,1.24,0,1.86,0c0.64,0,1.25,0,1.87,0v0.72c-0.09,0-0.17,0-0.25,0c-0.07,0-0.17,0-0.28,0
		c-0.51,0-0.94,0.19-1.31,0.57c-0.37,0.37-0.55,0.81-0.55,1.31v15.42c0,0.13,0.02,0.26,0.06,0.41c0.03,0.14,0.06,0.28,0.11,0.41
		c0.16,0.42,0.4,0.81,0.73,1.16c0.33,0.35,0.7,0.53,1.09,0.53h0.5v0.69C757.68,731.43,757.05,731.43,756.4,731.43z"/>
	<path d="M794.75,710.92c-0.67,0-1.29,0.2-1.91,0.57c-0.59,0.39-1.12,0.82-1.53,1.31l-5.84,7.04v8.39c0,0.13,0.01,0.26,0.05,0.41
		c0.03,0.14,0.06,0.28,0.11,0.41c0.16,0.42,0.38,0.81,0.71,1.16c0.32,0.35,0.69,0.53,1.11,0.53h0.5v0.69h-7.66v-0.69h0.49
		c0.4,0,0.77-0.18,1.09-0.53c0.33-0.35,0.57-0.74,0.72-1.16c0.05-0.13,0.09-0.27,0.12-0.41c0.03-0.15,0.04-0.28,0.04-0.41v-7.89
		l-6.24-7.53c-0.37-0.42-0.83-0.79-1.37-1.13s-1.11-0.57-1.7-0.68c-0.11-0.02-0.24-0.04-0.37-0.05c-0.13-0.01-0.25-0.02-0.37-0.02
		v-0.72h9.59v0.72h-1.55c-0.05,0-0.09,0-0.12,0c-0.03,0-0.06,0-0.11,0c-0.11,0.02-0.21,0.05-0.3,0.1c-0.08,0.04-0.15,0.11-0.19,0.2
		c-0.03,0.02-0.04,0.05-0.04,0.08c0,0.03,0,0.07,0,0.12c0,0.04,0.01,0.09,0.02,0.15c0.01,0.06,0.03,0.11,0.05,0.15
		c0.02,0.11,0.06,0.23,0.14,0.33c0.06,0.11,0.13,0.21,0.2,0.29c0.02,0.03,0.05,0.06,0.08,0.1c0.03,0.04,0.06,0.08,0.08,0.1
		l4.66,5.62l4.22-5.05c0.14-0.17,0.25-0.35,0.33-0.53c0.09-0.17,0.13-0.36,0.13-0.56c0-0.07,0-0.13-0.02-0.2
		c-0.01-0.07-0.04-0.13-0.08-0.2c-0.08-0.21-0.24-0.39-0.44-0.51c-0.21-0.12-0.44-0.18-0.68-0.18h-0.69v-0.72c1.23,0,2.47,0,3.72,0
		c1.24,0,2.47,0,3.68,0v0.72H794.75z"/>
</g>
<rect x="290.66" y="635.73" class="st7" width="632.03" height="96.77"/>
<text transform="matrix(1 0 0 1 290.6586 685.9167)" class="st8 st9">JUANI  BAZTERRICA</text>
</svg>
